<mxfile host="app.diagrams.net" modified="2022-09-12T15:35:50.280Z" agent="5.0 (Macintosh; Intel Mac OS X 10_15_7) AppleWebKit/537.36 (KHTML, like Gecko) Chrome/105.0.0.0 Safari/537.36" etag="aAvhJFa4QiERSd4lswC3" version="20.3.0" type="github">
  <diagram id="Kv670bl2iCkAUUgUtm1P" name="第 1 页">
    <mxGraphModel dx="872" dy="798" grid="1" gridSize="10" guides="1" tooltips="1" connect="1" arrows="1" fold="1" page="1" pageScale="1" pageWidth="1169" pageHeight="1654" math="0" shadow="0">
      <root>
        <mxCell id="0" />
        <mxCell id="1" parent="0" />
        <mxCell id="q95WCEw-yWSBIzs-vXt1-10" value="" style="rounded=1;whiteSpace=wrap;html=1;strokeWidth=3;fontSize=26;fillColor=none;dashed=1;" parent="1" vertex="1">
          <mxGeometry x="161" y="213" width="265" height="240" as="geometry" />
        </mxCell>
        <mxCell id="q95WCEw-yWSBIzs-vXt1-4" style="rounded=0;orthogonalLoop=1;jettySize=auto;html=1;strokeWidth=2;fillColor=#6d8764;strokeColor=#3A5431;" parent="1" source="q95WCEw-yWSBIzs-vXt1-1" target="q95WCEw-yWSBIzs-vXt1-2" edge="1">
          <mxGeometry relative="1" as="geometry">
            <mxPoint x="220" y="340" as="targetPoint" />
          </mxGeometry>
        </mxCell>
        <mxCell id="q95WCEw-yWSBIzs-vXt1-5" style="edgeStyle=none;rounded=0;orthogonalLoop=1;jettySize=auto;html=1;strokeWidth=2;fillColor=#6d8764;strokeColor=#3A5431;" parent="1" source="q95WCEw-yWSBIzs-vXt1-1" target="q95WCEw-yWSBIzs-vXt1-3" edge="1">
          <mxGeometry relative="1" as="geometry" />
        </mxCell>
        <mxCell id="q95WCEw-yWSBIzs-vXt1-1" value="&lt;b&gt;&lt;font style=&quot;font-size: 28px;&quot;&gt;K2&lt;/font&gt;&lt;/b&gt;" style="ellipse;whiteSpace=wrap;html=1;aspect=fixed;strokeWidth=2;fillColor=#6d8764;fontColor=#ffffff;strokeColor=#3A5431;" parent="1" vertex="1">
          <mxGeometry x="260" y="250" width="70" height="70" as="geometry" />
        </mxCell>
        <mxCell id="q95WCEw-yWSBIzs-vXt1-2" value="&lt;font color=&quot;#ff0000&quot; style=&quot;font-size: 26px;&quot;&gt;&lt;b style=&quot;&quot;&gt;K2&lt;/b&gt;&lt;/font&gt;" style="ellipse;whiteSpace=wrap;html=1;aspect=fixed;strokeWidth=3;fillColor=none;fontColor=#ffffff;strokeColor=#FF0000;dashed=1;" parent="1" vertex="1">
          <mxGeometry x="190" y="350" width="70" height="70" as="geometry" />
        </mxCell>
        <mxCell id="q95WCEw-yWSBIzs-vXt1-3" value="&lt;b&gt;&lt;font style=&quot;font-size: 26px;&quot;&gt;K3&lt;/font&gt;&lt;/b&gt;" style="ellipse;whiteSpace=wrap;html=1;aspect=fixed;strokeWidth=2;fillColor=#6d8764;fontColor=#ffffff;strokeColor=#3A5431;" parent="1" vertex="1">
          <mxGeometry x="330" y="351" width="70" height="70" as="geometry" />
        </mxCell>
        <mxCell id="q95WCEw-yWSBIzs-vXt1-8" value="&lt;b&gt;&lt;font style=&quot;font-size: 26px;&quot;&gt;K2&lt;/font&gt;&lt;/b&gt;" style="ellipse;whiteSpace=wrap;html=1;aspect=fixed;strokeWidth=2;fillColor=#e51400;fontColor=#ffffff;strokeColor=#B20000;" parent="1" vertex="1">
          <mxGeometry x="590" y="250" width="70" height="70" as="geometry" />
        </mxCell>
        <mxCell id="q95WCEw-yWSBIzs-vXt1-13" value="&lt;b&gt;Version ？&lt;/b&gt;" style="text;html=1;align=center;verticalAlign=middle;resizable=0;points=[];autosize=1;strokeColor=none;fillColor=none;fontSize=26;" parent="1" vertex="1">
          <mxGeometry x="220" y="160" width="150" height="40" as="geometry" />
        </mxCell>
        <mxCell id="q95WCEw-yWSBIzs-vXt1-15" value="" style="curved=1;endArrow=classic;html=1;rounded=0;sketch=1;strokeWidth=2;fontSize=26;dashed=1;strokeColor=#FF0000;" parent="1" source="q95WCEw-yWSBIzs-vXt1-8" target="q95WCEw-yWSBIzs-vXt1-2" edge="1">
          <mxGeometry width="50" height="50" relative="1" as="geometry">
            <mxPoint x="620" y="370" as="sourcePoint" />
            <mxPoint x="340" y="540" as="targetPoint" />
            <Array as="points">
              <mxPoint x="580" y="390" />
              <mxPoint x="440" y="460" />
            </Array>
          </mxGeometry>
        </mxCell>
        <mxCell id="q95WCEw-yWSBIzs-vXt1-16" value="&lt;b&gt;Compare &lt;br&gt;Timestamp&lt;/b&gt;" style="text;html=1;align=center;verticalAlign=middle;resizable=0;points=[];autosize=1;strokeColor=none;fillColor=none;fontSize=26;rotation=0;" parent="1" vertex="1">
          <mxGeometry x="430" y="293" width="160" height="80" as="geometry" />
        </mxCell>
      </root>
    </mxGraphModel>
  </diagram>
</mxfile>
